<?xml version="1.0" standalone="no"?>
<!DOCTYPE svg PUBLIC "-//W3C//DTD SVG 20010904//EN"
 "http://www.w3.org/TR/2001/REC-SVG-20010904/DTD/svg10.dtd">
<svg version="1.0" xmlns="http://www.w3.org/2000/svg"
 width="700.000000pt" height="700.000000pt" viewBox="0 0 700.000000 700.000000"
 preserveAspectRatio="xMidYMid meet">
<metadata>
Created by potrace 1.11, written by Peter Selinger 2001-2013
</metadata>
<g transform="translate(0.000000,700.000000) scale(0.100000,-0.100000)"
fill="#000000" stroke="none">
<path d="M3440 6966 c-30 -18 -80 -46 -110 -63 -30 -16 -174 -98 -320 -180
-307 -174 -270 -154 -560 -317 -124 -69 -232 -130 -240 -136 -8 -5 -73 -42
-145 -82 -71 -40 -138 -77 -147 -83 -46 -28 -174 -101 -183 -104 -5 -2 -79
-44 -163 -93 -84 -48 -155 -88 -156 -88 -2 0 -41 -22 -87 -48 -101 -58 -160
-92 -259 -147 -41 -23 -174 -98 -295 -167 -121 -69 -247 -140 -280 -158 -33
-18 -66 -37 -73 -43 -9 -7 -12 -367 -10 -1760 3 -1543 5 -1751 18 -1758 8 -5
55 -31 103 -59 49 -27 90 -50 92 -50 2 0 39 -21 82 -46 43 -26 101 -59 128
-74 28 -15 79 -45 115 -65 36 -21 88 -50 115 -65 28 -15 66 -36 85 -48 19 -11
53 -30 75 -42 22 -12 225 -127 450 -255 226 -127 433 -244 460 -260 28 -15
131 -73 230 -130 99 -56 305 -173 458 -259 153 -86 292 -165 310 -175 18 -10
102 -58 187 -106 85 -48 159 -91 164 -96 9 -8 79 27 270 138 60 35 110 63 112
63 1 0 42 23 91 51 48 28 113 65 143 82 30 16 174 98 320 180 491 278 645 365
755 427 17 9 113 64 215 122 307 175 673 381 710 400 19 11 136 77 260 148
l225 128 0 1753 0 1753 -210 119 c-115 65 -235 132 -265 149 -30 16 -59 33
-65 38 -5 4 -35 21 -65 37 -30 17 -71 39 -90 50 -118 67 -352 200 -390 221
-25 14 -142 80 -260 147 -118 67 -242 137 -275 155 -33 18 -77 44 -97 57 -21
12 -39 23 -41 23 -4 0 -167 91 -197 110 -8 5 -49 28 -90 51 -81 45 -122 68
-172 98 -90 50 -442 250 -508 286 -41 23 -110 63 -153 89 -43 25 -81 46 -84
46 -3 0 -27 13 -52 28 -69 42 -72 42 -131 8z"/>
</g>
</svg>
